<svg width="572" height="133" viewBox="0 0 572 133" fill="none" xmlns="http://www.w3.org/2000/svg">
<rect x="0.5" y="0.5" width="571" height="132" rx="66" stroke="white"/>
<path d="M48.2627 91V38.44H53.7347V91H48.2627ZM52.2947 91V86.032H76.9907V91H52.2947ZM109.035 91V79.552H108.171V66.016C108.171 63.184 107.427 61.024 105.939 59.536C104.451 58 102.147 57.232 99.0272 57.232C97.5872 57.232 96.1232 57.256 94.6352 57.304C93.1952 57.352 91.8032 57.424 90.4592 57.52C89.1632 57.568 88.0112 57.64 87.0032 57.736V52.984C88.0592 52.888 89.1392 52.792 90.2432 52.696C91.3472 52.6 92.4752 52.552 93.6272 52.552C94.8272 52.504 95.9792 52.48 97.0832 52.48C100.971 52.48 104.091 52.96 106.443 53.92C108.843 54.88 110.595 56.392 111.699 58.456C112.803 60.472 113.355 63.16 113.355 66.52V91H109.035ZM96.1472 92.008C93.4592 92.008 91.0832 91.528 89.0192 90.568C86.9552 89.608 85.3472 88.216 84.1952 86.392C83.0912 84.568 82.5392 82.36 82.5392 79.768C82.5392 77.224 83.1152 75.064 84.2672 73.288C85.4672 71.512 87.1712 70.168 89.3792 69.256C91.6352 68.296 94.3472 67.816 97.5152 67.816H108.675V71.92H97.1552C94.1312 71.92 91.8032 72.664 90.1712 74.152C88.5872 75.592 87.7952 77.488 87.7952 79.84C87.7952 82.24 88.6352 84.16 90.3152 85.6C91.9952 86.992 94.2752 87.688 97.1552 87.688C98.9312 87.688 100.635 87.376 102.267 86.752C103.899 86.08 105.267 84.976 106.371 83.44C107.475 81.856 108.075 79.696 108.171 76.96L109.755 79.192C109.563 82.024 108.891 84.4 107.739 86.32C106.587 88.192 105.027 89.608 103.059 90.568C101.091 91.528 98.7872 92.008 96.1472 92.008ZM124.179 91V84.736L146.283 57.16L146.067 58.384L145.059 56.8L145.851 57.232H123.963V52.912H150.819V59.176L128.643 86.68L128.859 85.6L129.939 87.184L129.147 86.68H151.899V91H124.179ZM163.805 91V52.912H169.133V91H163.805ZM157.685 57.232V52.912H169.133V57.232H157.685ZM164.957 45.856C163.661 45.856 162.677 45.52 162.005 44.848C161.381 44.128 161.069 43.24 161.069 42.184C161.069 41.128 161.381 40.264 162.005 39.592C162.677 38.872 163.661 38.512 164.957 38.512C166.253 38.512 167.213 38.872 167.837 39.592C168.461 40.264 168.773 41.128 168.773 42.184C168.773 43.24 168.461 44.128 167.837 44.848C167.213 45.52 166.253 45.856 164.957 45.856ZM183.304 91V52.84H187.624V68.896H186.76C186.76 65.392 187.24 62.368 188.2 59.824C189.208 57.28 190.696 55.312 192.664 53.92C194.632 52.48 197.128 51.76 200.152 51.76H200.368C203.392 51.76 205.888 52.456 207.856 53.848C209.824 55.24 211.288 57.208 212.248 59.752C213.208 62.296 213.688 65.344 213.688 68.896H211.96C211.96 65.392 212.44 62.368 213.4 59.824C214.408 57.28 215.896 55.312 217.864 53.92C219.88 52.48 222.4 51.76 225.424 51.76H225.64C228.664 51.76 231.16 52.456 233.128 53.848C235.144 55.24 236.632 57.208 237.592 59.752C238.6 62.296 239.104 65.344 239.104 68.896V91H233.704V67.672C233.704 64.312 232.888 61.648 231.256 59.68C229.624 57.712 227.272 56.728 224.2 56.728C221.032 56.728 218.512 57.76 216.64 59.824C214.816 61.84 213.904 64.576 213.904 68.032V91H208.504V67.672C208.504 64.312 207.688 61.648 206.056 59.68C204.424 57.712 202.072 56.728 199 56.728C195.832 56.728 193.312 57.76 191.44 59.824C189.616 61.84 188.704 64.576 188.704 68.032V91H183.304ZM270.591 91V38.44H276.063V91H270.591ZM274.623 91V86.032H299.319V91H274.623ZM331.363 91V79.552H330.499V66.016C330.499 63.184 329.755 61.024 328.267 59.536C326.779 58 324.475 57.232 321.355 57.232C319.915 57.232 318.451 57.256 316.963 57.304C315.523 57.352 314.131 57.424 312.787 57.52C311.491 57.568 310.339 57.64 309.331 57.736V52.984C310.387 52.888 311.467 52.792 312.571 52.696C313.675 52.6 314.803 52.552 315.955 52.552C317.155 52.504 318.307 52.48 319.411 52.48C323.299 52.48 326.419 52.96 328.771 53.92C331.171 54.88 332.923 56.392 334.027 58.456C335.131 60.472 335.683 63.16 335.683 66.52V91H331.363ZM318.475 92.008C315.787 92.008 313.411 91.528 311.347 90.568C309.283 89.608 307.675 88.216 306.523 86.392C305.419 84.568 304.867 82.36 304.867 79.768C304.867 77.224 305.443 75.064 306.595 73.288C307.795 71.512 309.499 70.168 311.707 69.256C313.963 68.296 316.675 67.816 319.843 67.816H331.003V71.92H319.483C316.459 71.92 314.131 72.664 312.499 74.152C310.915 75.592 310.123 77.488 310.123 79.84C310.123 82.24 310.963 84.16 312.643 85.6C314.323 86.992 316.603 87.688 319.483 87.688C321.259 87.688 322.963 87.376 324.595 86.752C326.227 86.08 327.595 84.976 328.699 83.44C329.803 81.856 330.403 79.696 330.499 76.96L332.083 79.192C331.891 82.024 331.219 84.4 330.067 86.32C328.915 88.192 327.355 89.608 325.387 90.568C323.419 91.528 321.115 92.008 318.475 92.008ZM362.996 91.432C360.356 91.432 358.076 91.048 356.156 90.28C354.236 89.512 352.748 88.216 351.691 86.392C350.636 84.52 350.108 82.024 350.108 78.904V40.888H355.292V79.696C355.292 81.904 355.892 83.608 357.092 84.808C358.292 85.96 359.996 86.536 362.204 86.536H369.044V91.432H362.996ZM343.268 57.016V52.912H369.044V57.016H343.268ZM379.476 91V38.44H384.876V68.176L383.292 69.4C383.292 65.848 383.796 62.752 384.804 60.112C385.86 57.472 387.42 55.432 389.484 53.992C391.596 52.504 394.236 51.76 397.404 51.76H397.692C402.3 51.76 405.78 53.272 408.132 56.296C410.532 59.32 411.732 63.52 411.732 68.896V91H406.404V67.744C406.404 64.336 405.468 61.648 403.596 59.68C401.724 57.712 399.204 56.728 396.036 56.728C392.628 56.728 389.916 57.832 387.9 60.04C385.884 62.2 384.876 65.056 384.876 68.608V91H379.476ZM441.091 92.224C437.827 92.224 434.995 91.672 432.595 90.568C430.195 89.416 428.227 87.904 426.691 86.032C425.155 84.112 424.003 81.976 423.235 79.624C422.515 77.272 422.155 74.848 422.155 72.352V71.344C422.155 68.896 422.515 66.496 423.235 64.144C424.003 61.792 425.155 59.68 426.691 57.808C428.227 55.936 430.147 54.448 432.451 53.344C434.803 52.192 437.539 51.616 440.659 51.616C444.643 51.616 447.955 52.504 450.595 54.28C453.283 56.056 455.299 58.336 456.643 61.12C457.987 63.856 458.659 66.808 458.659 69.976V72.784H424.603V68.608H454.915L453.547 70.696C453.547 67.864 453.043 65.392 452.035 63.28C451.075 61.12 449.635 59.44 447.715 58.24C445.843 56.992 443.491 56.368 440.659 56.368C437.683 56.368 435.211 57.064 433.243 58.456C431.275 59.848 429.787 61.696 428.779 64C427.819 66.304 427.339 68.92 427.339 71.848C427.339 74.728 427.819 77.368 428.779 79.768C429.787 82.12 431.299 83.992 433.315 85.384C435.379 86.776 437.971 87.472 441.091 87.472C444.403 87.472 447.091 86.728 449.155 85.24C451.219 83.704 452.491 81.904 452.971 79.84H458.011C457.531 82.384 456.523 84.592 454.987 86.464C453.451 88.288 451.507 89.704 449.155 90.712C446.803 91.72 444.115 92.224 441.091 92.224ZM484.966 92.224C481.702 92.224 478.87 91.672 476.47 90.568C474.07 89.416 472.102 87.904 470.566 86.032C469.03 84.112 467.878 81.976 467.11 79.624C466.39 77.272 466.03 74.848 466.03 72.352V71.344C466.03 68.896 466.39 66.496 467.11 64.144C467.878 61.792 469.03 59.68 470.566 57.808C472.102 55.936 474.022 54.448 476.326 53.344C478.678 52.192 481.414 51.616 484.534 51.616C488.518 51.616 491.83 52.504 494.47 54.28C497.158 56.056 499.174 58.336 500.518 61.12C501.862 63.856 502.534 66.808 502.534 69.976V72.784H468.478V68.608H498.79L497.422 70.696C497.422 67.864 496.918 65.392 495.91 63.28C494.95 61.12 493.51 59.44 491.59 58.24C489.718 56.992 487.366 56.368 484.534 56.368C481.558 56.368 479.086 57.064 477.118 58.456C475.15 59.848 473.662 61.696 472.654 64C471.694 66.304 471.214 68.92 471.214 71.848C471.214 74.728 471.694 77.368 472.654 79.768C473.662 82.12 475.174 83.992 477.19 85.384C479.254 86.776 481.846 87.472 484.966 87.472C488.278 87.472 490.966 86.728 493.03 85.24C495.094 83.704 496.366 81.904 496.846 79.84H501.886C501.406 82.384 500.398 84.592 498.862 86.464C497.326 88.288 495.382 89.704 493.03 90.712C490.678 91.72 487.99 92.224 484.966 92.224ZM514.009 91V49.96C514.009 45.976 515.041 43.024 517.105 41.104C519.169 39.184 522.265 38.224 526.393 38.224H531.217V42.832H525.385C523.369 42.832 521.833 43.36 520.777 44.416C519.721 45.472 519.193 46.96 519.193 48.88V91H514.009ZM508.465 57.376V53.2H532.009V57.376H508.465Z" fill="white"/>
</svg>
